<mxfile host="app.diagrams.net" modified="2022-05-19T12:28:13.959Z" agent="5.0 (Macintosh; Intel Mac OS X 10_15_7) AppleWebKit/605.1.15 (KHTML, like Gecko) Version/15.4 Safari/605.1.15" etag="G6-iwhHl8iT7C_YLjES9" version="18.0.6" type="github">
  <diagram id="dfak9P4aBg5VRGbrMjbS" name="Page-1">
    <mxGraphModel dx="946" dy="620" grid="1" gridSize="10" guides="1" tooltips="1" connect="1" arrows="1" fold="1" page="1" pageScale="1" pageWidth="1169" pageHeight="1654" math="0" shadow="0">
      <root>
        <mxCell id="0" />
        <mxCell id="1" parent="0" />
        <mxCell id="v1O0bBh__z1E16P5YVnx-1" value="&lt;b style=&quot;font-size: 14px;&quot;&gt;1x1 conv, 128&lt;br&gt;&lt;/b&gt;&lt;b style=&quot;font-size: 14px;&quot;&gt;3x3 conv, 128&lt;br&gt;&lt;/b&gt;&lt;b style=&quot;font-size: 14px;&quot;&gt;1x1 conv, 512&lt;/b&gt;&lt;b style=&quot;font-size: 14px;&quot;&gt;&lt;br&gt;&lt;/b&gt;" style="whiteSpace=wrap;html=1;fillColor=#d5e8d4;strokeColor=#82b366;imageAspect=1;rounded=1;" parent="1" vertex="1">
          <mxGeometry x="224" y="330" width="176" height="70" as="geometry" />
        </mxCell>
        <mxCell id="v1O0bBh__z1E16P5YVnx-2" value="&lt;b style=&quot;font-size: 14px;&quot;&gt;1x1 conv, 256&lt;br&gt;&lt;/b&gt;&lt;b style=&quot;font-size: 14px;&quot;&gt;3x3 conv, 256&lt;br&gt;&lt;/b&gt;&lt;b style=&quot;font-size: 14px;&quot;&gt;1x1 conv, 1024&lt;/b&gt;&lt;b style=&quot;font-size: 14px;&quot;&gt;&lt;br&gt;&lt;/b&gt;" style="whiteSpace=wrap;html=1;fillColor=#ffe6cc;strokeColor=#d79b00;imageAspect=1;rounded=1;" parent="1" vertex="1">
          <mxGeometry x="224" y="600" width="176" height="70" as="geometry" />
        </mxCell>
        <mxCell id="v1O0bBh__z1E16P5YVnx-3" value="&lt;b style=&quot;font-size: 14px;&quot;&gt;3x3 conv, 512&lt;br&gt;&lt;/b&gt;&lt;b style=&quot;font-size: 14px;&quot;&gt;3x3 conv, 512&lt;br&gt;&lt;/b&gt;&lt;b style=&quot;font-size: 14px;&quot;&gt;3x3 conv, 512&lt;/b&gt;&lt;b style=&quot;font-size: 14px;&quot;&gt;&lt;br&gt;&lt;/b&gt;" style="whiteSpace=wrap;html=1;fillColor=#e1d5e7;strokeColor=#9673a6;imageAspect=1;rounded=1;" parent="1" vertex="1">
          <mxGeometry x="224" y="870" width="176" height="70" as="geometry" />
        </mxCell>
        <mxCell id="v1O0bBh__z1E16P5YVnx-4" value="&lt;font style=&quot;font-size: 14px;&quot;&gt;&lt;b&gt;1x1 conv, 64&lt;br&gt;&lt;/b&gt;&lt;b&gt;3x3 conv, 64&lt;br&gt;&lt;/b&gt;&lt;b&gt;1x1 conv, 256&lt;/b&gt;&lt;b&gt;&lt;br&gt;&lt;/b&gt;&lt;/font&gt;" style="whiteSpace=wrap;html=1;fillColor=#dae8fc;strokeColor=#6c8ebf;imageAspect=1;rounded=1;" parent="1" vertex="1">
          <mxGeometry x="224" y="60" width="176" height="70" as="geometry" />
        </mxCell>
        <mxCell id="v1O0bBh__z1E16P5YVnx-5" value="&lt;b&gt;&lt;font style=&quot;font-size: 14px;&quot;&gt;7x7 conv, 64&lt;/font&gt;&lt;/b&gt;" style="whiteSpace=wrap;html=1;fillColor=#f5f5f5;strokeColor=#666666;imageAspect=1;rounded=1;fontColor=#333333;" parent="1" vertex="1">
          <mxGeometry x="224" y="10" width="176" height="30" as="geometry" />
        </mxCell>
        <mxCell id="v1O0bBh__z1E16P5YVnx-6" value="" style="endArrow=classic;html=1;rounded=0;fontSize=14;exitX=0.5;exitY=1;exitDx=0;exitDy=0;entryX=0.5;entryY=0;entryDx=0;entryDy=0;" parent="1" source="v1O0bBh__z1E16P5YVnx-5" target="v1O0bBh__z1E16P5YVnx-4" edge="1">
          <mxGeometry width="50" height="50" relative="1" as="geometry">
            <mxPoint x="390" y="240" as="sourcePoint" />
            <mxPoint x="470" y="220" as="targetPoint" />
          </mxGeometry>
        </mxCell>
        <mxCell id="v1O0bBh__z1E16P5YVnx-8" value="" style="endArrow=classic;html=1;rounded=0;fontSize=14;exitX=0.5;exitY=1;exitDx=0;exitDy=0;" parent="1" source="v1O0bBh__z1E16P5YVnx-1" edge="1">
          <mxGeometry width="50" height="50" relative="1" as="geometry">
            <mxPoint x="332" y="270" as="sourcePoint" />
            <mxPoint x="312" y="420" as="targetPoint" />
          </mxGeometry>
        </mxCell>
        <mxCell id="v1O0bBh__z1E16P5YVnx-11" value="&lt;b&gt;&lt;font style=&quot;font-size: 14px;&quot;&gt;FC, 40&lt;/font&gt;&lt;/b&gt;" style="whiteSpace=wrap;html=1;fillColor=#f5f5f5;strokeColor=#666666;imageAspect=1;rounded=1;fontColor=#333333;" parent="1" vertex="1">
          <mxGeometry x="224" y="1139" width="176" height="30" as="geometry" />
        </mxCell>
        <mxCell id="v1O0bBh__z1E16P5YVnx-12" value="" style="curved=1;endArrow=classic;html=1;rounded=0;fontSize=14;" parent="1" edge="1">
          <mxGeometry width="50" height="50" relative="1" as="geometry">
            <mxPoint x="320" y="680" as="sourcePoint" />
            <mxPoint x="320" y="770" as="targetPoint" />
            <Array as="points">
              <mxPoint x="480" y="680" />
              <mxPoint x="480" y="770" />
            </Array>
          </mxGeometry>
        </mxCell>
        <mxCell id="v1O0bBh__z1E16P5YVnx-14" value="" style="curved=1;endArrow=classic;html=1;rounded=0;fontSize=14;" parent="1" edge="1">
          <mxGeometry width="50" height="50" relative="1" as="geometry">
            <mxPoint x="320" y="590" as="sourcePoint" />
            <mxPoint x="320" y="680" as="targetPoint" />
            <Array as="points">
              <mxPoint x="480" y="590" />
              <mxPoint x="480" y="680" />
            </Array>
          </mxGeometry>
        </mxCell>
        <mxCell id="v1O0bBh__z1E16P5YVnx-15" value="" style="curved=1;endArrow=classic;html=1;rounded=0;fontSize=14;" parent="1" edge="1">
          <mxGeometry width="50" height="50" relative="1" as="geometry">
            <mxPoint x="320" y="140" as="sourcePoint" />
            <mxPoint x="320" y="230" as="targetPoint" />
            <Array as="points">
              <mxPoint x="480" y="140" />
              <mxPoint x="480" y="230" />
            </Array>
          </mxGeometry>
        </mxCell>
        <mxCell id="v1O0bBh__z1E16P5YVnx-16" value="" style="curved=1;endArrow=classic;html=1;rounded=0;fontSize=14;" parent="1" edge="1">
          <mxGeometry width="50" height="50" relative="1" as="geometry">
            <mxPoint x="320" y="50" as="sourcePoint" />
            <mxPoint x="320" y="140" as="targetPoint" />
            <Array as="points">
              <mxPoint x="480" y="50" />
              <mxPoint x="480" y="140" />
            </Array>
          </mxGeometry>
        </mxCell>
        <mxCell id="i2eewOkyUu95k3uIHTJ6-1" value="" style="endArrow=classic;html=1;rounded=0;fontSize=14;exitX=0.5;exitY=1;exitDx=0;exitDy=0;" edge="1" parent="1" source="v1O0bBh__z1E16P5YVnx-4">
          <mxGeometry width="50" height="50" relative="1" as="geometry">
            <mxPoint x="322" y="440" as="sourcePoint" />
            <mxPoint x="312" y="150" as="targetPoint" />
          </mxGeometry>
        </mxCell>
        <mxCell id="i2eewOkyUu95k3uIHTJ6-2" value="&lt;font style=&quot;font-size: 14px;&quot;&gt;&lt;b&gt;1x1 conv, 64&lt;br&gt;&lt;/b&gt;&lt;b&gt;3x3 conv, 64&lt;br&gt;&lt;/b&gt;&lt;b&gt;1x1 conv, 256&lt;/b&gt;&lt;b&gt;&lt;br&gt;&lt;/b&gt;&lt;/font&gt;" style="whiteSpace=wrap;html=1;fillColor=#dae8fc;strokeColor=#6c8ebf;imageAspect=1;rounded=1;" vertex="1" parent="1">
          <mxGeometry x="224" y="150" width="176" height="70" as="geometry" />
        </mxCell>
        <mxCell id="i2eewOkyUu95k3uIHTJ6-3" value="&lt;font style=&quot;font-size: 14px;&quot;&gt;&lt;b&gt;1x1 conv, 64&lt;br&gt;&lt;/b&gt;&lt;b&gt;3x3 conv, 64&lt;br&gt;&lt;/b&gt;&lt;b&gt;1x1 conv, 256&lt;/b&gt;&lt;b&gt;&lt;br&gt;&lt;/b&gt;&lt;/font&gt;" style="whiteSpace=wrap;html=1;fillColor=#dae8fc;strokeColor=#6c8ebf;imageAspect=1;rounded=1;" vertex="1" parent="1">
          <mxGeometry x="224" y="240" width="176" height="70" as="geometry" />
        </mxCell>
        <mxCell id="i2eewOkyUu95k3uIHTJ6-6" value="" style="endArrow=classic;html=1;rounded=0;fontSize=14;entryX=0.5;entryY=0;entryDx=0;entryDy=0;" edge="1" parent="1" target="i2eewOkyUu95k3uIHTJ6-3">
          <mxGeometry width="50" height="50" relative="1" as="geometry">
            <mxPoint x="312" y="220" as="sourcePoint" />
            <mxPoint x="322" y="160" as="targetPoint" />
          </mxGeometry>
        </mxCell>
        <mxCell id="i2eewOkyUu95k3uIHTJ6-7" value="" style="endArrow=classic;html=1;rounded=0;fontSize=14;exitX=0.5;exitY=1;exitDx=0;exitDy=0;" edge="1" parent="1" source="i2eewOkyUu95k3uIHTJ6-3">
          <mxGeometry width="50" height="50" relative="1" as="geometry">
            <mxPoint x="322" y="230" as="sourcePoint" />
            <mxPoint x="312" y="330" as="targetPoint" />
          </mxGeometry>
        </mxCell>
        <mxCell id="i2eewOkyUu95k3uIHTJ6-8" value="" style="curved=1;endArrow=classic;html=1;rounded=0;fontSize=14;" edge="1" parent="1">
          <mxGeometry width="50" height="50" relative="1" as="geometry">
            <mxPoint x="320" y="320" as="sourcePoint" />
            <mxPoint x="320" y="410" as="targetPoint" />
            <Array as="points">
              <mxPoint x="480" y="320" />
              <mxPoint x="480" y="410" />
            </Array>
          </mxGeometry>
        </mxCell>
        <mxCell id="i2eewOkyUu95k3uIHTJ6-11" value="" style="endArrow=classic;html=1;rounded=0;fontSize=14;exitX=0.5;exitY=1;exitDx=0;exitDy=0;entryX=0.5;entryY=0;entryDx=0;entryDy=0;" edge="1" parent="1">
          <mxGeometry width="50" height="50" relative="1" as="geometry">
            <mxPoint x="312" y="490" as="sourcePoint" />
            <mxPoint x="312" y="510" as="targetPoint" />
          </mxGeometry>
        </mxCell>
        <mxCell id="i2eewOkyUu95k3uIHTJ6-12" value="" style="curved=1;endArrow=classic;html=1;rounded=0;fontSize=14;" edge="1" parent="1">
          <mxGeometry width="50" height="50" relative="1" as="geometry">
            <mxPoint x="320" y="410" as="sourcePoint" />
            <mxPoint x="320" y="500" as="targetPoint" />
            <Array as="points">
              <mxPoint x="480" y="410" />
              <mxPoint x="480" y="500" />
            </Array>
          </mxGeometry>
        </mxCell>
        <mxCell id="i2eewOkyUu95k3uIHTJ6-13" value="" style="curved=1;endArrow=classic;html=1;rounded=0;fontSize=14;" edge="1" parent="1">
          <mxGeometry width="50" height="50" relative="1" as="geometry">
            <mxPoint x="320" y="500" as="sourcePoint" />
            <mxPoint x="320" y="590" as="targetPoint" />
            <Array as="points">
              <mxPoint x="480" y="500" />
              <mxPoint x="480" y="590" />
            </Array>
          </mxGeometry>
        </mxCell>
        <mxCell id="i2eewOkyUu95k3uIHTJ6-14" value="" style="endArrow=classic;html=1;rounded=0;fontSize=14;exitX=0.5;exitY=1;exitDx=0;exitDy=0;" edge="1" parent="1">
          <mxGeometry width="50" height="50" relative="1" as="geometry">
            <mxPoint x="312" y="580" as="sourcePoint" />
            <mxPoint x="312" y="600" as="targetPoint" />
          </mxGeometry>
        </mxCell>
        <mxCell id="i2eewOkyUu95k3uIHTJ6-15" value="&lt;b style=&quot;font-size: 14px;&quot;&gt;1x1 conv, 128&lt;br&gt;&lt;/b&gt;&lt;b style=&quot;font-size: 14px;&quot;&gt;3x3 conv, 128&lt;br&gt;&lt;/b&gt;&lt;b style=&quot;font-size: 14px;&quot;&gt;1x1 conv, 512&lt;/b&gt;&lt;b style=&quot;font-size: 14px;&quot;&gt;&lt;br&gt;&lt;/b&gt;" style="whiteSpace=wrap;html=1;fillColor=#d5e8d4;strokeColor=#82b366;imageAspect=1;rounded=1;" vertex="1" parent="1">
          <mxGeometry x="224" y="420" width="176" height="70" as="geometry" />
        </mxCell>
        <mxCell id="i2eewOkyUu95k3uIHTJ6-16" value="&lt;b style=&quot;font-size: 14px;&quot;&gt;1x1 conv, 128&lt;br&gt;&lt;/b&gt;&lt;b style=&quot;font-size: 14px;&quot;&gt;3x3 conv, 128&lt;br&gt;&lt;/b&gt;&lt;b style=&quot;font-size: 14px;&quot;&gt;1x1 conv, 512&lt;/b&gt;&lt;b style=&quot;font-size: 14px;&quot;&gt;&lt;br&gt;&lt;/b&gt;" style="whiteSpace=wrap;html=1;fillColor=#d5e8d4;strokeColor=#82b366;imageAspect=1;rounded=1;" vertex="1" parent="1">
          <mxGeometry x="224" y="510" width="176" height="70" as="geometry" />
        </mxCell>
        <mxCell id="i2eewOkyUu95k3uIHTJ6-24" value="" style="edgeStyle=orthogonalEdgeStyle;rounded=0;orthogonalLoop=1;jettySize=auto;html=1;" edge="1" parent="1" source="i2eewOkyUu95k3uIHTJ6-19" target="i2eewOkyUu95k3uIHTJ6-20">
          <mxGeometry relative="1" as="geometry" />
        </mxCell>
        <mxCell id="i2eewOkyUu95k3uIHTJ6-19" value="&lt;b style=&quot;font-size: 14px;&quot;&gt;1x1 conv, 256&lt;br&gt;&lt;/b&gt;&lt;b style=&quot;font-size: 14px;&quot;&gt;3x3 conv, 256&lt;br&gt;&lt;/b&gt;&lt;b style=&quot;font-size: 14px;&quot;&gt;1x1 conv, 1024&lt;/b&gt;&lt;b style=&quot;font-size: 14px;&quot;&gt;&lt;br&gt;&lt;/b&gt;" style="whiteSpace=wrap;html=1;fillColor=#ffe6cc;strokeColor=#d79b00;imageAspect=1;rounded=1;" vertex="1" parent="1">
          <mxGeometry x="224" y="690" width="176" height="70" as="geometry" />
        </mxCell>
        <mxCell id="i2eewOkyUu95k3uIHTJ6-20" value="&lt;b style=&quot;font-size: 14px;&quot;&gt;1x1 conv, 256&lt;br&gt;&lt;/b&gt;&lt;b style=&quot;font-size: 14px;&quot;&gt;3x3 conv, 256&lt;br&gt;&lt;/b&gt;&lt;b style=&quot;font-size: 14px;&quot;&gt;1x1 conv, 1024&lt;/b&gt;&lt;b style=&quot;font-size: 14px;&quot;&gt;&lt;br&gt;&lt;/b&gt;" style="whiteSpace=wrap;html=1;fillColor=#ffe6cc;strokeColor=#d79b00;imageAspect=1;rounded=1;" vertex="1" parent="1">
          <mxGeometry x="224" y="780" width="176" height="70" as="geometry" />
        </mxCell>
        <mxCell id="i2eewOkyUu95k3uIHTJ6-21" value="" style="curved=1;endArrow=classic;html=1;rounded=0;fontSize=14;" edge="1" parent="1">
          <mxGeometry width="50" height="50" relative="1" as="geometry">
            <mxPoint x="320" y="770" as="sourcePoint" />
            <mxPoint x="320" y="860" as="targetPoint" />
            <Array as="points">
              <mxPoint x="480" y="770" />
              <mxPoint x="480" y="860" />
            </Array>
          </mxGeometry>
        </mxCell>
        <mxCell id="i2eewOkyUu95k3uIHTJ6-22" value="" style="endArrow=classic;html=1;rounded=0;fontSize=14;exitX=0.5;exitY=1;exitDx=0;exitDy=0;" edge="1" parent="1" source="v1O0bBh__z1E16P5YVnx-2">
          <mxGeometry width="50" height="50" relative="1" as="geometry">
            <mxPoint x="322" y="900" as="sourcePoint" />
            <mxPoint x="312" y="690" as="targetPoint" />
          </mxGeometry>
        </mxCell>
        <mxCell id="i2eewOkyUu95k3uIHTJ6-23" value="" style="endArrow=classic;html=1;rounded=0;fontSize=14;entryX=0.5;entryY=0;entryDx=0;entryDy=0;" edge="1" parent="1" target="i2eewOkyUu95k3uIHTJ6-20">
          <mxGeometry width="50" height="50" relative="1" as="geometry">
            <mxPoint x="312" y="760" as="sourcePoint" />
            <mxPoint x="322" y="700" as="targetPoint" />
          </mxGeometry>
        </mxCell>
        <mxCell id="i2eewOkyUu95k3uIHTJ6-25" value="" style="endArrow=classic;html=1;rounded=0;fontSize=14;exitX=0.5;exitY=1;exitDx=0;exitDy=0;" edge="1" parent="1" source="i2eewOkyUu95k3uIHTJ6-20">
          <mxGeometry width="50" height="50" relative="1" as="geometry">
            <mxPoint x="322" y="770" as="sourcePoint" />
            <mxPoint x="312" y="870" as="targetPoint" />
          </mxGeometry>
        </mxCell>
        <mxCell id="i2eewOkyUu95k3uIHTJ6-26" value="&lt;b style=&quot;font-size: 14px;&quot;&gt;3x3 conv, 512&lt;br&gt;&lt;/b&gt;&lt;b style=&quot;font-size: 14px;&quot;&gt;3x3 conv, 512&lt;br&gt;&lt;/b&gt;&lt;b style=&quot;font-size: 14px;&quot;&gt;3x3 conv, 512&lt;/b&gt;&lt;b style=&quot;font-size: 14px;&quot;&gt;&lt;br&gt;&lt;/b&gt;" style="whiteSpace=wrap;html=1;fillColor=#e1d5e7;strokeColor=#9673a6;imageAspect=1;rounded=1;" vertex="1" parent="1">
          <mxGeometry x="224" y="960" width="176" height="70" as="geometry" />
        </mxCell>
        <mxCell id="i2eewOkyUu95k3uIHTJ6-28" value="&lt;b style=&quot;font-size: 14px;&quot;&gt;3x3 conv, 512&lt;br&gt;&lt;/b&gt;&lt;b style=&quot;font-size: 14px;&quot;&gt;3x3 conv, 512&lt;br&gt;&lt;/b&gt;&lt;b style=&quot;font-size: 14px;&quot;&gt;3x3 conv, 512&lt;/b&gt;&lt;b style=&quot;font-size: 14px;&quot;&gt;&lt;br&gt;&lt;/b&gt;" style="whiteSpace=wrap;html=1;fillColor=#e1d5e7;strokeColor=#9673a6;imageAspect=1;rounded=1;" vertex="1" parent="1">
          <mxGeometry x="224" y="1050" width="176" height="70" as="geometry" />
        </mxCell>
        <mxCell id="i2eewOkyUu95k3uIHTJ6-32" value="" style="endArrow=classic;html=1;rounded=0;fontSize=14;exitX=0.5;exitY=1;exitDx=0;exitDy=0;" edge="1" parent="1" source="v1O0bBh__z1E16P5YVnx-3" target="i2eewOkyUu95k3uIHTJ6-26">
          <mxGeometry width="50" height="50" relative="1" as="geometry">
            <mxPoint x="322" y="860" as="sourcePoint" />
            <mxPoint x="322" y="880" as="targetPoint" />
          </mxGeometry>
        </mxCell>
        <mxCell id="i2eewOkyUu95k3uIHTJ6-33" value="" style="endArrow=classic;html=1;rounded=0;fontSize=14;exitX=0.5;exitY=1;exitDx=0;exitDy=0;entryX=0.5;entryY=0;entryDx=0;entryDy=0;" edge="1" parent="1" source="i2eewOkyUu95k3uIHTJ6-26" target="i2eewOkyUu95k3uIHTJ6-28">
          <mxGeometry width="50" height="50" relative="1" as="geometry">
            <mxPoint x="322" y="950" as="sourcePoint" />
            <mxPoint x="322" y="970" as="targetPoint" />
          </mxGeometry>
        </mxCell>
        <mxCell id="i2eewOkyUu95k3uIHTJ6-34" value="" style="endArrow=classic;html=1;rounded=0;fontSize=14;entryX=0.5;entryY=0;entryDx=0;entryDy=0;" edge="1" parent="1" target="v1O0bBh__z1E16P5YVnx-11">
          <mxGeometry width="50" height="50" relative="1" as="geometry">
            <mxPoint x="312" y="1120" as="sourcePoint" />
            <mxPoint x="322" y="1060" as="targetPoint" />
          </mxGeometry>
        </mxCell>
        <mxCell id="i2eewOkyUu95k3uIHTJ6-35" value="" style="curved=1;endArrow=classic;html=1;rounded=0;fontSize=14;" edge="1" parent="1">
          <mxGeometry width="50" height="50" relative="1" as="geometry">
            <mxPoint x="319.9999999999999" y="950" as="sourcePoint" />
            <mxPoint x="319.9999999999999" y="1040" as="targetPoint" />
            <Array as="points">
              <mxPoint x="480" y="950" />
              <mxPoint x="480" y="1040" />
            </Array>
          </mxGeometry>
        </mxCell>
        <mxCell id="i2eewOkyUu95k3uIHTJ6-36" value="" style="curved=1;endArrow=classic;html=1;rounded=0;fontSize=14;" edge="1" parent="1">
          <mxGeometry width="50" height="50" relative="1" as="geometry">
            <mxPoint x="319.9999999999999" y="860" as="sourcePoint" />
            <mxPoint x="319.9999999999999" y="950" as="targetPoint" />
            <Array as="points">
              <mxPoint x="480" y="860" />
              <mxPoint x="480" y="950" />
            </Array>
          </mxGeometry>
        </mxCell>
        <mxCell id="i2eewOkyUu95k3uIHTJ6-37" value="" style="curved=1;endArrow=classic;html=1;rounded=0;fontSize=14;" edge="1" parent="1">
          <mxGeometry width="50" height="50" relative="1" as="geometry">
            <mxPoint x="319.9999999999999" y="1040" as="sourcePoint" />
            <mxPoint x="319.9999999999999" y="1130" as="targetPoint" />
            <Array as="points">
              <mxPoint x="480" y="1040" />
              <mxPoint x="480" y="1130" />
            </Array>
          </mxGeometry>
        </mxCell>
        <mxCell id="i2eewOkyUu95k3uIHTJ6-38" value="" style="endArrow=none;html=1;rounded=0;" edge="1" parent="1">
          <mxGeometry width="50" height="50" relative="1" as="geometry">
            <mxPoint x="220" y="275" as="sourcePoint" />
            <mxPoint x="220" y="95" as="targetPoint" />
            <Array as="points">
              <mxPoint x="180" y="275" />
              <mxPoint x="180" y="95" />
            </Array>
          </mxGeometry>
        </mxCell>
        <mxCell id="i2eewOkyUu95k3uIHTJ6-39" value="" style="endArrow=none;html=1;rounded=0;" edge="1" parent="1">
          <mxGeometry width="50" height="50" relative="1" as="geometry">
            <mxPoint x="219.9999999999999" y="545" as="sourcePoint" />
            <mxPoint x="219.9999999999999" y="365" as="targetPoint" />
            <Array as="points">
              <mxPoint x="180" y="545" />
              <mxPoint x="180" y="365" />
            </Array>
          </mxGeometry>
        </mxCell>
        <mxCell id="i2eewOkyUu95k3uIHTJ6-40" value="" style="endArrow=none;html=1;rounded=0;" edge="1" parent="1">
          <mxGeometry width="50" height="50" relative="1" as="geometry">
            <mxPoint x="219.9999999999999" y="810" as="sourcePoint" />
            <mxPoint x="219.9999999999999" y="630" as="targetPoint" />
            <Array as="points">
              <mxPoint x="180" y="810" />
              <mxPoint x="180" y="630" />
            </Array>
          </mxGeometry>
        </mxCell>
        <mxCell id="i2eewOkyUu95k3uIHTJ6-41" value="3 blocks" style="text;html=1;align=center;verticalAlign=middle;resizable=0;points=[];autosize=1;strokeColor=none;fillColor=none;" vertex="1" parent="1">
          <mxGeometry x="120" y="180" width="60" height="20" as="geometry" />
        </mxCell>
        <mxCell id="i2eewOkyUu95k3uIHTJ6-42" value="4 blocks" style="text;html=1;align=center;verticalAlign=middle;resizable=0;points=[];autosize=1;strokeColor=none;fillColor=none;" vertex="1" parent="1">
          <mxGeometry x="120" y="460" width="60" height="20" as="geometry" />
        </mxCell>
        <mxCell id="i2eewOkyUu95k3uIHTJ6-43" value="6 blocks" style="text;html=1;align=center;verticalAlign=middle;resizable=0;points=[];autosize=1;strokeColor=none;fillColor=none;" vertex="1" parent="1">
          <mxGeometry x="120" y="715" width="60" height="20" as="geometry" />
        </mxCell>
        <mxCell id="i2eewOkyUu95k3uIHTJ6-44" value="" style="endArrow=none;html=1;rounded=0;" edge="1" parent="1">
          <mxGeometry width="50" height="50" relative="1" as="geometry">
            <mxPoint x="220" y="1085" as="sourcePoint" />
            <mxPoint x="220" y="905" as="targetPoint" />
            <Array as="points">
              <mxPoint x="180" y="1085" />
              <mxPoint x="180" y="905" />
            </Array>
          </mxGeometry>
        </mxCell>
        <mxCell id="i2eewOkyUu95k3uIHTJ6-45" value="3 blocks&amp;nbsp;" style="text;html=1;align=center;verticalAlign=middle;resizable=0;points=[];autosize=1;strokeColor=none;fillColor=none;" vertex="1" parent="1">
          <mxGeometry x="120" y="990" width="60" height="20" as="geometry" />
        </mxCell>
      </root>
    </mxGraphModel>
  </diagram>
</mxfile>
